<mxfile host="app.diagrams.net" modified="2023-06-07T03:28:11.719Z" agent="Mozilla/5.0 (Macintosh; Intel Mac OS X 10.15; rv:109.0) Gecko/20100101 Firefox/113.0" etag="WnVDTLNp3tnoJ20A3GIG" version="21.3.7" type="device">
  <diagram name="Page-1" id="74e2e168-ea6b-b213-b513-2b3c1d86103e">
    <mxGraphModel dx="1882" dy="1040" grid="0" gridSize="10" guides="1" tooltips="1" connect="1" arrows="1" fold="1" page="0" pageScale="1" pageWidth="1100" pageHeight="850" background="none" math="0" shadow="0">
      <root>
        <mxCell id="0" />
        <mxCell id="1" parent="0" />
        <mxCell id="77e6c97f196da883-1" value="&lt;font style=&quot;font-size: 18px;&quot;&gt;TLSTerminate 流程图&lt;/font&gt;" style="swimlane;html=1;childLayout=stackLayout;startSize=20;rounded=0;shadow=0;labelBackgroundColor=none;strokeWidth=1;fontFamily=Verdana;fontSize=18;align=center;" parent="1" vertex="1">
          <mxGeometry x="-7" y="-33" width="799" height="733" as="geometry">
            <mxRectangle x="60" y="-30" width="210" height="40" as="alternateBounds" />
          </mxGeometry>
        </mxCell>
        <mxCell id="k9yy4idc6pMp43QgDsTV-271" style="edgeStyle=orthogonalEdgeStyle;rounded=0;orthogonalLoop=1;jettySize=auto;html=1;exitX=1;exitY=0.5;exitDx=0;exitDy=0;fontSize=12;" parent="77e6c97f196da883-1" edge="1">
          <mxGeometry relative="1" as="geometry">
            <mxPoint x="595" y="73" as="targetPoint" />
            <Array as="points">
              <mxPoint x="480" y="548" />
              <mxPoint x="545" y="548" />
              <mxPoint x="545" y="73" />
            </Array>
          </mxGeometry>
        </mxCell>
        <mxCell id="k9yy4idc6pMp43QgDsTV-189" value="" style="edgeStyle=orthogonalEdgeStyle;rounded=0;orthogonalLoop=1;jettySize=auto;html=1;fontSize=12;" parent="77e6c97f196da883-1" source="k9yy4idc6pMp43QgDsTV-16" edge="1">
          <mxGeometry relative="1" as="geometry">
            <mxPoint x="320" y="75" as="targetPoint" />
            <Array as="points">
              <mxPoint x="280" y="668" />
              <mxPoint x="280" y="75" />
            </Array>
          </mxGeometry>
        </mxCell>
        <mxCell id="77e6c97f196da883-2" value="Listener/监听" style="swimlane;html=1;startSize=20;fontSize=15;" parent="77e6c97f196da883-1" vertex="1">
          <mxGeometry y="20" width="321" height="713" as="geometry">
            <mxRectangle y="20" width="40" height="1050" as="alternateBounds" />
          </mxGeometry>
        </mxCell>
        <mxCell id="k9yy4idc6pMp43QgDsTV-6" value="" style="edgeStyle=orthogonalEdgeStyle;rounded=0;orthogonalLoop=1;jettySize=auto;html=1;fontSize=12;" parent="77e6c97f196da883-2" source="77e6c97f196da883-8" target="k9yy4idc6pMp43QgDsTV-2" edge="1">
          <mxGeometry relative="1" as="geometry" />
        </mxCell>
        <mxCell id="77e6c97f196da883-8" value="Accept TCP connections" style="rounded=1;whiteSpace=wrap;html=1;shadow=0;labelBackgroundColor=none;strokeWidth=1;fontFamily=Verdana;fontSize=12;align=center;" parent="77e6c97f196da883-2" vertex="1">
          <mxGeometry x="110" y="40" width="100" height="60" as="geometry" />
        </mxCell>
        <mxCell id="k9yy4idc6pMp43QgDsTV-8" value="" style="edgeStyle=orthogonalEdgeStyle;rounded=0;orthogonalLoop=1;jettySize=auto;html=1;fontSize=12;" parent="77e6c97f196da883-2" source="77e6c97f196da883-9" edge="1">
          <mxGeometry relative="1" as="geometry">
            <mxPoint x="160" y="326" as="targetPoint" />
          </mxGeometry>
        </mxCell>
        <mxCell id="77e6c97f196da883-9" value="四层限流" style="rounded=1;whiteSpace=wrap;html=1;shadow=0;labelBackgroundColor=none;strokeWidth=1;fontFamily=Verdana;fontSize=12;align=center;" parent="77e6c97f196da883-2" vertex="1">
          <mxGeometry x="110" y="240" width="100" height="60" as="geometry" />
        </mxCell>
        <mxCell id="k9yy4idc6pMp43QgDsTV-14" value="" style="edgeStyle=orthogonalEdgeStyle;rounded=0;orthogonalLoop=1;jettySize=auto;html=1;fontSize=12;" parent="77e6c97f196da883-2" source="77e6c97f196da883-10" target="k9yy4idc6pMp43QgDsTV-9" edge="1">
          <mxGeometry relative="1" as="geometry" />
        </mxCell>
        <mxCell id="77e6c97f196da883-10" value="&lt;div style=&quot;font-size: 12px;&quot;&gt;sni &lt;br style=&quot;font-size: 12px;&quot;&gt;&lt;/div&gt;&lt;div style=&quot;font-size: 12px;&quot;&gt;证书选择&lt;br style=&quot;font-size: 12px;&quot;&gt;&lt;/div&gt;" style="rounded=1;whiteSpace=wrap;html=1;shadow=0;labelBackgroundColor=none;strokeWidth=1;fontFamily=Verdana;fontSize=12;align=center;" parent="77e6c97f196da883-2" vertex="1">
          <mxGeometry x="110" y="328" width="100" height="60" as="geometry" />
        </mxCell>
        <mxCell id="k9yy4idc6pMp43QgDsTV-5" value="放行" style="edgeStyle=orthogonalEdgeStyle;rounded=0;orthogonalLoop=1;jettySize=auto;html=1;fontSize=12;" parent="77e6c97f196da883-2" source="k9yy4idc6pMp43QgDsTV-2" target="77e6c97f196da883-9" edge="1">
          <mxGeometry relative="1" as="geometry" />
        </mxCell>
        <mxCell id="k9yy4idc6pMp43QgDsTV-2" value="&lt;div style=&quot;font-size: 12px;&quot;&gt;IP&lt;/div&gt;&lt;div style=&quot;font-size: 12px;&quot;&gt;黑白名单&lt;br style=&quot;font-size: 12px;&quot;&gt;&lt;/div&gt;" style="rhombus;whiteSpace=wrap;html=1;fontSize=12;" parent="77e6c97f196da883-2" vertex="1">
          <mxGeometry x="100" y="125" width="120" height="80" as="geometry" />
        </mxCell>
        <mxCell id="k9yy4idc6pMp43QgDsTV-3" value="" style="endArrow=classic;html=1;rounded=0;exitX=0;exitY=0.5;exitDx=0;exitDy=0;fontSize=12;" parent="77e6c97f196da883-2" source="k9yy4idc6pMp43QgDsTV-2" edge="1">
          <mxGeometry width="50" height="50" relative="1" as="geometry">
            <mxPoint x="100" y="170" as="sourcePoint" />
            <mxPoint y="165" as="targetPoint" />
          </mxGeometry>
        </mxCell>
        <mxCell id="k9yy4idc6pMp43QgDsTV-4" value="阻挡" style="edgeLabel;html=1;align=center;verticalAlign=middle;resizable=0;points=[];fontSize=12;" parent="k9yy4idc6pMp43QgDsTV-3" vertex="1" connectable="0">
          <mxGeometry x="-0.05" relative="1" as="geometry">
            <mxPoint as="offset" />
          </mxGeometry>
        </mxCell>
        <mxCell id="ktWB_Vb_ixAs_fgzPAio-1" value="" style="edgeStyle=orthogonalEdgeStyle;rounded=0;orthogonalLoop=1;jettySize=auto;html=1;" parent="77e6c97f196da883-2" source="77e6c97f196da883-11" target="k9yy4idc6pMp43QgDsTV-16" edge="1">
          <mxGeometry relative="1" as="geometry" />
        </mxCell>
        <mxCell id="77e6c97f196da883-11" value="&lt;div style=&quot;font-size: 12px;&quot;&gt;根据client TLS 证书&lt;/div&gt;&lt;div style=&quot;font-size: 12px;&quot;&gt;确定 consumer&lt;br style=&quot;font-size: 12px;&quot;&gt;&lt;/div&gt;" style="rounded=1;whiteSpace=wrap;html=1;shadow=0;labelBackgroundColor=none;strokeWidth=1;fontFamily=Verdana;fontSize=12;align=center;" parent="77e6c97f196da883-2" vertex="1">
          <mxGeometry x="110" y="517" width="100" height="60" as="geometry" />
        </mxCell>
        <mxCell id="k9yy4idc6pMp43QgDsTV-15" value="是" style="edgeStyle=orthogonalEdgeStyle;rounded=0;orthogonalLoop=1;jettySize=auto;html=1;fontSize=12;" parent="77e6c97f196da883-2" source="k9yy4idc6pMp43QgDsTV-9" target="77e6c97f196da883-11" edge="1">
          <mxGeometry relative="1" as="geometry" />
        </mxCell>
        <mxCell id="k9yy4idc6pMp43QgDsTV-21" value="否" style="edgeStyle=orthogonalEdgeStyle;rounded=0;orthogonalLoop=1;jettySize=auto;html=1;fontSize=12;exitX=1;exitY=0.5;exitDx=0;exitDy=0;" parent="77e6c97f196da883-2" source="k9yy4idc6pMp43QgDsTV-9" edge="1">
          <mxGeometry relative="1" as="geometry">
            <mxPoint x="160" y="590" as="targetPoint" />
            <Array as="points">
              <mxPoint x="240" y="451" />
              <mxPoint x="240" y="590" />
            </Array>
          </mxGeometry>
        </mxCell>
        <mxCell id="k9yy4idc6pMp43QgDsTV-9" value="&lt;div style=&quot;font-size: 12px;&quot;&gt;是否&lt;/div&gt;&lt;div style=&quot;font-size: 12px;&quot;&gt;mTLS&lt;br style=&quot;font-size: 12px;&quot;&gt;&lt;/div&gt;" style="rhombus;whiteSpace=wrap;html=1;fontSize=12;" parent="77e6c97f196da883-2" vertex="1">
          <mxGeometry x="100" y="421" width="120" height="60" as="geometry" />
        </mxCell>
        <mxCell id="k9yy4idc6pMp43QgDsTV-16" value="&lt;div style=&quot;font-size: 12px;&quot;&gt;chain&lt;/div&gt;下一流程" style="ellipse;whiteSpace=wrap;html=1;aspect=fixed;fontSize=12;" parent="77e6c97f196da883-2" vertex="1">
          <mxGeometry x="120" y="608" width="80" height="80" as="geometry" />
        </mxCell>
        <mxCell id="77e6c97f196da883-6" value="Forward/转发" style="swimlane;html=1;startSize=20;fontSize=15;" parent="77e6c97f196da883-1" vertex="1">
          <mxGeometry x="321" y="20" width="236" height="713" as="geometry" />
        </mxCell>
        <mxCell id="m261Mu6kWICh3gqnxyR3-4" value="" style="edgeStyle=orthogonalEdgeStyle;rounded=0;orthogonalLoop=1;jettySize=auto;html=1;" parent="77e6c97f196da883-6" edge="1">
          <mxGeometry relative="1" as="geometry">
            <mxPoint x="110" y="113" as="sourcePoint" />
            <mxPoint x="108" y="138" as="targetPoint" />
          </mxGeometry>
        </mxCell>
        <mxCell id="k9yy4idc6pMp43QgDsTV-169" value="&lt;div style=&quot;font-size: 12px;&quot;&gt;负载均衡&lt;/div&gt;&lt;div style=&quot;font-size: 12px;&quot;&gt;&lt;br style=&quot;font-size: 12px;&quot;&gt;&lt;/div&gt;&lt;div style=&quot;font-size: 12px;&quot;&gt;endpoints&lt;br style=&quot;font-size: 12px;&quot;&gt;&lt;/div&gt;" style="rounded=1;whiteSpace=wrap;html=1;shadow=0;labelBackgroundColor=none;strokeWidth=1;fontFamily=Verdana;fontSize=12;align=center;flipV=1;" parent="77e6c97f196da883-6" vertex="1">
          <mxGeometry x="60" y="33" width="100" height="80" as="geometry" />
        </mxCell>
        <mxCell id="ktWB_Vb_ixAs_fgzPAio-2" value="" style="edgeStyle=orthogonalEdgeStyle;rounded=0;orthogonalLoop=1;jettySize=auto;html=1;" parent="77e6c97f196da883-6" source="k9yy4idc6pMp43QgDsTV-176" target="k9yy4idc6pMp43QgDsTV-182" edge="1">
          <mxGeometry relative="1" as="geometry" />
        </mxCell>
        <mxCell id="k9yy4idc6pMp43QgDsTV-176" value="&lt;div style=&quot;font-size: 12px;&quot;&gt;TLS cert&lt;/div&gt;&lt;div style=&quot;font-size: 12px;&quot;&gt;&lt;br style=&quot;font-size: 12px;&quot;&gt;&lt;/div&gt;&lt;div style=&quot;font-size: 12px;&quot;&gt;选择使用&lt;/div&gt;&lt;div style=&quot;font-size: 12px;&quot;&gt;上游证书&lt;/div&gt;" style="rounded=1;whiteSpace=wrap;html=1;shadow=0;labelBackgroundColor=none;strokeWidth=1;fontFamily=Verdana;fontSize=12;align=center;flipV=1;" parent="77e6c97f196da883-6" vertex="1">
          <mxGeometry x="60" y="220" width="100" height="80" as="geometry" />
        </mxCell>
        <mxCell id="ktWB_Vb_ixAs_fgzPAio-4" value="" style="edgeStyle=orthogonalEdgeStyle;rounded=0;orthogonalLoop=1;jettySize=auto;html=1;" parent="77e6c97f196da883-6" source="k9yy4idc6pMp43QgDsTV-182" edge="1">
          <mxGeometry relative="1" as="geometry">
            <mxPoint x="234" y="53" as="targetPoint" />
            <Array as="points">
              <mxPoint x="191" y="386" />
              <mxPoint x="191" y="53" />
            </Array>
          </mxGeometry>
        </mxCell>
        <mxCell id="m261Mu6kWICh3gqnxyR3-10" value="" style="edgeStyle=orthogonalEdgeStyle;rounded=0;orthogonalLoop=1;jettySize=auto;html=1;" parent="77e6c97f196da883-6" source="k9yy4idc6pMp43QgDsTV-182" edge="1">
          <mxGeometry relative="1" as="geometry">
            <mxPoint x="-1" y="663" as="targetPoint" />
            <Array as="points">
              <mxPoint x="110" y="663" />
              <mxPoint x="2" y="663" />
            </Array>
          </mxGeometry>
        </mxCell>
        <mxCell id="k9yy4idc6pMp43QgDsTV-182" value="&lt;div style=&quot;font-size: 12px;&quot;&gt;chain&lt;/div&gt;下一流程" style="ellipse;whiteSpace=wrap;html=1;aspect=fixed;fontSize=12;" parent="77e6c97f196da883-6" vertex="1">
          <mxGeometry x="70" y="340" width="80" height="80" as="geometry" />
        </mxCell>
        <mxCell id="m261Mu6kWICh3gqnxyR3-5" value="" style="edgeStyle=orthogonalEdgeStyle;rounded=0;orthogonalLoop=1;jettySize=auto;html=1;" parent="77e6c97f196da883-6" edge="1">
          <mxGeometry relative="1" as="geometry">
            <mxPoint x="106" y="193" as="sourcePoint" />
            <mxPoint x="108" y="220" as="targetPoint" />
          </mxGeometry>
        </mxCell>
        <mxCell id="m261Mu6kWICh3gqnxyR3-7" value="" style="edgeStyle=orthogonalEdgeStyle;rounded=0;orthogonalLoop=1;jettySize=auto;html=1;exitX=1;exitY=0.5;exitDx=0;exitDy=0;" parent="77e6c97f196da883-6" source="m261Mu6kWICh3gqnxyR3-1" edge="1">
          <mxGeometry relative="1" as="geometry">
            <mxPoint x="111" y="321" as="targetPoint" />
            <Array as="points">
              <mxPoint x="178" y="166" />
              <mxPoint x="178" y="321" />
              <mxPoint x="111" y="321" />
            </Array>
          </mxGeometry>
        </mxCell>
        <mxCell id="m261Mu6kWICh3gqnxyR3-1" value="&lt;div&gt;是否有&lt;/div&gt;&lt;div&gt;TLS证书&lt;br&gt;&lt;/div&gt;" style="rhombus;whiteSpace=wrap;html=1;" parent="77e6c97f196da883-6" vertex="1">
          <mxGeometry x="58" y="138" width="100" height="55" as="geometry" />
        </mxCell>
        <mxCell id="77e6c97f196da883-7" value="Connect/连接" style="swimlane;html=1;startSize=20;fontSize=15;" parent="77e6c97f196da883-1" vertex="1">
          <mxGeometry x="557" y="20" width="242" height="713" as="geometry" />
        </mxCell>
        <mxCell id="k9yy4idc6pMp43QgDsTV-218" value="" style="edgeStyle=orthogonalEdgeStyle;rounded=0;orthogonalLoop=1;jettySize=auto;html=1;fontSize=12;" parent="77e6c97f196da883-7" source="k9yy4idc6pMp43QgDsTV-180" target="k9yy4idc6pMp43QgDsTV-185" edge="1">
          <mxGeometry relative="1" as="geometry" />
        </mxCell>
        <mxCell id="k9yy4idc6pMp43QgDsTV-180" value="&lt;div style=&quot;font-size: 12px;&quot;&gt;Connect&lt;/div&gt;&lt;div style=&quot;font-size: 12px;&quot;&gt;&lt;br style=&quot;font-size: 12px;&quot;&gt;&lt;/div&gt;&lt;div style=&quot;font-size: 12px;&quot;&gt;连接&lt;br style=&quot;font-size: 12px;&quot;&gt;&lt;/div&gt;" style="rounded=1;whiteSpace=wrap;html=1;shadow=0;labelBackgroundColor=none;strokeWidth=1;fontFamily=Verdana;fontSize=12;align=center;" parent="77e6c97f196da883-7" vertex="1">
          <mxGeometry x="38" y="41" width="100" height="80" as="geometry" />
        </mxCell>
        <mxCell id="m261Mu6kWICh3gqnxyR3-13" value="" style="edgeStyle=orthogonalEdgeStyle;rounded=0;orthogonalLoop=1;jettySize=auto;html=1;exitX=0.5;exitY=1;exitDx=0;exitDy=0;" parent="77e6c97f196da883-7" source="k9yy4idc6pMp43QgDsTV-184" edge="1">
          <mxGeometry relative="1" as="geometry">
            <mxPoint x="2" y="402" as="targetPoint" />
            <Array as="points">
              <mxPoint x="88" y="402" />
            </Array>
          </mxGeometry>
        </mxCell>
        <mxCell id="k9yy4idc6pMp43QgDsTV-184" value="&lt;div style=&quot;font-size: 12px;&quot;&gt;Connect&lt;/div&gt;&lt;div style=&quot;font-size: 12px;&quot;&gt;&lt;br style=&quot;font-size: 12px;&quot;&gt;&lt;/div&gt;&lt;div style=&quot;font-size: 12px;&quot;&gt;通过Socks或者HTTP代理&lt;br style=&quot;font-size: 12px;&quot;&gt;&lt;/div&gt;" style="rounded=1;whiteSpace=wrap;html=1;shadow=0;labelBackgroundColor=none;strokeWidth=1;fontFamily=Verdana;fontSize=12;align=center;" parent="77e6c97f196da883-7" vertex="1">
          <mxGeometry x="38" y="260" width="100" height="80" as="geometry" />
        </mxCell>
        <mxCell id="k9yy4idc6pMp43QgDsTV-219" value="" style="edgeStyle=orthogonalEdgeStyle;rounded=0;orthogonalLoop=1;jettySize=auto;html=1;fontSize=12;" parent="77e6c97f196da883-7" source="k9yy4idc6pMp43QgDsTV-185" target="k9yy4idc6pMp43QgDsTV-184" edge="1">
          <mxGeometry relative="1" as="geometry" />
        </mxCell>
        <mxCell id="k9yy4idc6pMp43QgDsTV-224" value="是" style="edgeLabel;html=1;align=center;verticalAlign=middle;resizable=0;points=[];fontSize=12;" parent="k9yy4idc6pMp43QgDsTV-219" vertex="1" connectable="0">
          <mxGeometry x="0.28" y="1" relative="1" as="geometry">
            <mxPoint as="offset" />
          </mxGeometry>
        </mxCell>
        <mxCell id="k9yy4idc6pMp43QgDsTV-223" value="否" style="edgeStyle=orthogonalEdgeStyle;rounded=0;orthogonalLoop=1;jettySize=auto;html=1;fontSize=12;" parent="77e6c97f196da883-7" edge="1">
          <mxGeometry relative="1" as="geometry">
            <mxPoint x="130" y="191" as="sourcePoint" />
            <mxPoint y="402" as="targetPoint" />
            <Array as="points">
              <mxPoint x="160" y="191" />
              <mxPoint x="160" y="402" />
              <mxPoint y="402" />
            </Array>
          </mxGeometry>
        </mxCell>
        <mxCell id="k9yy4idc6pMp43QgDsTV-185" value="&lt;div style=&quot;font-size: 12px;&quot;&gt;是否&lt;/div&gt;&lt;div style=&quot;font-size: 12px;&quot;&gt;代理&lt;br style=&quot;font-size: 12px;&quot;&gt;&lt;/div&gt;" style="rhombus;whiteSpace=wrap;html=1;fontSize=12;" parent="77e6c97f196da883-7" vertex="1">
          <mxGeometry x="48" y="150" width="80" height="80" as="geometry" />
        </mxCell>
      </root>
    </mxGraphModel>
  </diagram>
</mxfile>
